<svg id="a253f0f3-33e5-4eba-bc87-354421eb20ad" data-name="Layer 1" xmlns="http://www.w3.org/2000/svg" viewBox="0 0 340.05 158.05"><path d="M184.45,228.42h.67l-.39,2.44a2,2,0,0,1-.08.36h0a2.23,2.23,0,0,1,1.76-.92,1.77,1.77,0,0,1,1.74,2,2.62,2.62,0,0,1-2.49,2.74,1.52,1.52,0,0,1-1.48-1h0a1.72,1.72,0,0,1,0,.34l-.11.57h-.62Zm0,4.56a1.29,1.29,0,0,0,1.29,1.44,1.94,1.94,0,0,0,1.8-2.08c0-.85-.45-1.45-1.25-1.45A1.91,1.91,0,0,0,184.42,233Z" transform="translate(-82.35 -78.95)" style="fill:#231f20"/><path d="M188,236.36a1.54,1.54,0,0,0,.46.06c.77,0,1.23-.67,1.76-1.59L189,230.41h.74l.41,1.64c.17.7.35,1.39.51,2.08.35-.6.81-1.45,1.16-2.08l.93-1.64h.74l-2.45,4.23c-.85,1.46-1.44,2.36-2.65,2.36a1.26,1.26,0,0,1-.51-.09Z" transform="translate(-82.35 -78.95)" style="fill:#231f20"/><path d="M202.42,227.41l-.25-.48c0,.39-.12.77-.17,1.14l-1.24,7.84H199.5l2-12.45h0l4.3,7.14,6.58-7.14h0l-2,12.45h-1.26l1.24-7.84c.06-.37.12-.75.21-1.14-.22.27-.55.63-.82.95l-4.28,4.61Z" transform="translate(-82.35 -78.95)" style="fill:#231f20"/><path d="M221.27,235.91H220.1l.15-1.07a4.3,4.3,0,0,1,.16-.65h0a4.28,4.28,0,0,1-3.4,1.92c-2,0-3.31-1.56-3.31-3.74a4.94,4.94,0,0,1,4.71-5.17,3,3,0,0,1,2.82,1.86h0a2.26,2.26,0,0,1,.05-.65l.17-1h1.18Zm-6.37-3.67c0,1.58.88,2.75,2.4,2.75a3.61,3.61,0,0,0,3.45-3.94,2.42,2.42,0,0,0-2.4-2.72A3.65,3.65,0,0,0,214.9,232.24Z" transform="translate(-82.35 -78.95)" style="fill:#231f20"/><path d="M227,232.15c-1.27-.42-2.23-1.05-2.23-2.28,0-1.6,1.52-2.67,3.4-2.67a5.16,5.16,0,0,1,2.28.51l-.19,1.18a4.42,4.42,0,0,0-2.14-.6c-1.22,0-2.12.51-2.12,1.43,0,.68.59,1,1.7,1.41,1.53.53,2.33,1.16,2.33,2.29,0,1.76-1.52,2.69-3.44,2.69a6.09,6.09,0,0,1-2.68-.56l.18-1.17a6.58,6.58,0,0,0,2.62.66c1.09,0,2.11-.43,2.11-1.45C228.84,232.88,228.23,232.56,227,232.15Z" transform="translate(-82.35 -78.95)" style="fill:#231f20"/><path d="M234,227.41l.41-2.55h1.24l-.41,2.55h2.67l-.15,1h-2.67l-.77,4.8c-.2,1.31.28,1.77,1,1.77a4.48,4.48,0,0,0,1.7-.4l-.17,1.11a4.62,4.62,0,0,1-1.9.39c-1.18,0-2.26-.61-2-2.55l.82-5.12h-1.46l.15-1Z" transform="translate(-82.35 -78.95)" style="fill:#231f20"/><path d="M246.69,230.55a6.26,6.26,0,0,1-.19,1.29h-6.58v.07a2.49,2.49,0,0,0,2.68,3.08,6.58,6.58,0,0,0,3.25-.85l-.19,1.19a7.2,7.2,0,0,1-3.3.78,3.55,3.55,0,0,1-3.77-3.77,5.05,5.05,0,0,1,4.88-5.14A3.1,3.1,0,0,1,246.69,230.55Zm-3.42-2.26a3.45,3.45,0,0,0-3.18,2.64h5.31A2.07,2.07,0,0,0,243.27,228.29Z" transform="translate(-82.35 -78.95)" style="fill:#231f20"/><path d="M249.63,227.41h1.19l-.2,1.31a4.6,4.6,0,0,1-.14.64h0a3.59,3.59,0,0,1,3-2.16,2.81,2.81,0,0,1,.5.05l-.2,1.23a1.34,1.34,0,0,0-.41,0c-1.78,0-3,2-3.26,3.74l-.59,3.74h-1.26Z" transform="translate(-82.35 -78.95)" style="fill:#231f20"/><path d="M258.44,235.38l.2-1.29a7.14,7.14,0,0,0,3.26.85c1.74,0,3.17-.82,3.17-2.31,0-1-.65-1.65-2.43-2.32-2-.76-2.91-1.71-2.91-3.16,0-2.36,2.07-3.69,4.49-3.69a6.86,6.86,0,0,1,2.87.63l-.2,1.26a6.25,6.25,0,0,0-2.81-.71c-1.7,0-3,.86-3,2.27,0,.92.58,1.65,2.39,2.35,2,.77,2.95,1.67,2.95,3.13,0,2.33-1.94,3.72-4.59,3.72A7.82,7.82,0,0,1,258.44,235.38Z" transform="translate(-82.35 -78.95)" style="fill:#231f20"/><path d="M276.13,230.55a6.26,6.26,0,0,1-.19,1.29h-6.57l0,.07A2.5,2.5,0,0,0,272,235a6.54,6.54,0,0,0,3.24-.85l-.18,1.19a7.26,7.26,0,0,1-3.3.78,3.56,3.56,0,0,1-3.78-3.77,5.06,5.06,0,0,1,4.88-5.14A3.1,3.1,0,0,1,276.13,230.55Zm-3.41-2.26a3.43,3.43,0,0,0-3.18,2.64h5.3A2.07,2.07,0,0,0,272.72,228.29Z" transform="translate(-82.35 -78.95)" style="fill:#231f20"/><path d="M279.07,227.41h1.19l-.2,1.31a3.4,3.4,0,0,1-.14.64h0a3.58,3.58,0,0,1,3-2.16,2.85,2.85,0,0,1,.51.05l-.2,1.23a1.46,1.46,0,0,0-.41,0c-1.79,0-3,2-3.27,3.74l-.59,3.74h-1.26Z" transform="translate(-82.35 -78.95)" style="fill:#231f20"/><path d="M292.66,227.41l-5.24,8.7h-.53l-2.46-8.7h1.34c.6,2.19,1.21,4.45,1.74,6.54,1.18-2.09,2.51-4.35,3.79-6.54Z" transform="translate(-82.35 -78.95)" style="fill:#231f20"/><path d="M295.61,227.41l-1.34,8.5H293l1.35-8.5Zm-.1-3.3a.68.68,0,0,1,.72.7.94.94,0,0,1-1,.93.66.66,0,0,1-.72-.7A.92.92,0,0,1,295.51,224.11Z" transform="translate(-82.35 -78.95)" style="fill:#231f20"/><path d="M301.53,235a5.66,5.66,0,0,0,2.79-.76l-.19,1.2a6,6,0,0,1-2.84.7,3.57,3.57,0,0,1-3.72-3.79,5.08,5.08,0,0,1,5.13-5.12,4.68,4.68,0,0,1,2.57.68l-.2,1.23a4.12,4.12,0,0,0-2.5-.77,3.72,3.72,0,0,0-3.69,3.84A2.57,2.57,0,0,0,301.53,235Z" transform="translate(-82.35 -78.95)" style="fill:#231f20"/><path d="M314.47,230.55a7.05,7.05,0,0,1-.19,1.29H307.7l0,.07a2.5,2.5,0,0,0,2.69,3.08,6.58,6.58,0,0,0,3.25-.85l-.19,1.19a7.2,7.2,0,0,1-3.3.78,3.55,3.55,0,0,1-3.77-3.77,5.05,5.05,0,0,1,4.88-5.14A3.1,3.1,0,0,1,314.47,230.55Zm-3.42-2.26a3.44,3.44,0,0,0-3.18,2.64h5.31A2.08,2.08,0,0,0,311.05,228.29Z" transform="translate(-82.35 -78.95)" style="fill:#231f20"/><path d="M318.61,232.15c-1.27-.42-2.22-1.05-2.22-2.28,0-1.6,1.51-2.67,3.4-2.67a5.22,5.22,0,0,1,2.28.51l-.19,1.18a4.45,4.45,0,0,0-2.14-.6c-1.23,0-2.13.51-2.13,1.43,0,.68.6,1,1.7,1.41,1.53.53,2.33,1.16,2.33,2.29,0,1.76-1.51,2.69-3.43,2.69a6.1,6.1,0,0,1-2.69-.56l.19-1.17a6.54,6.54,0,0,0,2.62.66c1.08,0,2.1-.43,2.1-1.45C320.43,232.88,319.82,232.56,318.61,232.15Z" transform="translate(-82.35 -78.95)" style="fill:#231f20"/><path d="M99.67,160.86l10.12,16.59h-9.35L93.9,166.19l-3.05,3.74v7.52h-8.5V148.17h8.5v12.08l8.94-12.08h9.88Z" transform="translate(-82.35 -78.95)" style="fill:#e1251b"/><path d="M113.74,177.45V148.17h8.5v22.12h10v7.16Z" transform="translate(-82.35 -78.95)" style="fill:#e1251b"/><path d="M154.6,173.59h-8.9l-1.79,3.86h-8.82L150,147.77h.41l14.88,29.68h-8.83Zm-6.54-5.53h4.23a49.72,49.72,0,0,1-2.08-5.45h-.08A49.39,49.39,0,0,1,148.06,168.06Z" transform="translate(-82.35 -78.95)" style="fill:#e1251b"/><path d="M165.75,148.17h8.49v17.28c0,3.09,1.51,4.84,4.64,4.84s4.63-1.75,4.63-4.84V148.17h8.54v18.22c0,7-4.84,11.67-13.17,11.67s-13.13-4.72-13.13-11.67Z" transform="translate(-82.35 -78.95)" style="fill:#e1251b"/><path d="M217.59,169.15c0,5.58-4.15,8.91-11.79,8.91a24.19,24.19,0,0,1-9-1.59v-8.13a18.68,18.68,0,0,0,8.5,2.32c2.56,0,3.94-.45,3.94-1.51,0-1.21-1.91-1.78-5-3-4.71-1.83-8.05-3.79-8.05-9.4s4.51-9.19,11.47-9.19a21.94,21.94,0,0,1,8,1.39v7.8a13.76,13.76,0,0,0-7.24-1.87c-2.4,0-3.86.69-3.86,1.87s1.79,1.79,4.75,3C214,161.71,217.59,163.71,217.59,169.15Z" transform="translate(-82.35 -78.95)" style="fill:#e1251b"/><path d="M248.94,177.45l-4.31-9.11h-2.4v9.11h-8.29V148.17h11c7.2,0,12.28,3.38,12.28,10.29a8.81,8.81,0,0,1-5.16,8.5l5.69,10.49Zm-6.71-22.12v6.26h3.17c1.71,0,3.25-.73,3.25-3.13s-1.54-3.13-3.25-3.13Z" transform="translate(-82.35 -78.95)" style="fill:#e1251b"/><path d="M275.41,147.56c9.23,0,15.65,6.88,15.65,15.25s-6.42,15.25-15.65,15.25-15.61-6.75-15.61-15.25S266.22,147.56,275.41,147.56Zm0,22.73c4.31,0,7.07-3.53,7.07-7.48s-2.76-7.48-7.07-7.48a7.21,7.21,0,0,0-7.07,7.48C268.34,166.76,271.14,170.29,275.41,170.29Z" transform="translate(-82.35 -78.95)" style="fill:#e1251b"/><path d="M309.52,147.56c9.23,0,15.66,6.88,15.66,15.25s-6.43,15.25-15.66,15.25-15.61-6.75-15.61-15.25S300.34,147.56,309.52,147.56Zm0,22.73c4.31,0,7.08-3.53,7.08-7.48a7.09,7.09,0,1,0-14.15,0C302.45,166.76,305.26,170.29,309.52,170.29Z" transform="translate(-82.35 -78.95)" style="fill:#e1251b"/><path d="M328.72,148.17H347.3v7.16H337.22v4.35h8.49v6.95h-8.49v10.82h-8.5Z" transform="translate(-82.35 -78.95)" style="fill:#e1251b"/><path d="M361,177.45h-8.5V148.17H361Z" transform="translate(-82.35 -78.95)" style="fill:#e1251b"/><path d="M375.11,164.32v13.13h-8.29V147.77h.4L384,161.31V148.17h8.33v29.69h-.37Z" transform="translate(-82.35 -78.95)" style="fill:#e1251b"/><path d="M422.4,175.86a24.72,24.72,0,0,1-10.33,2.2c-9.67,0-16-6.75-16-15.25s6.43-15.25,15.62-15.25a22.35,22.35,0,0,1,9.59,1.92v7.72a21.08,21.08,0,0,0-8.74-1.87c-5.2,0-7.93,3.62-7.93,7.48s2.6,7.56,7.48,7.56a19.8,19.8,0,0,0,2.24-.12v-6.79h8.09Z" transform="translate(-82.35 -78.95)" style="fill:#e1251b"/><polygon points="147.38 45.65 141.95 46.04 141.95 40.19 147.38 39.49 147.38 45.65" style="fill:#e1251b"/><polygon points="155.71 45.05 149.44 45.5 149.44 39.23 155.71 38.42 155.71 45.05" style="fill:#e1251b"/><polygon points="147.38 53.52 141.95 53.52 141.95 47.66 147.38 47.36 147.38 53.52" style="fill:#e1251b"/><polygon points="155.71 53.52 149.44 53.52 149.44 47.24 155.71 46.89 155.71 53.52" style="fill:#e1251b"/><polygon points="181.01 26.45 177.05 53.52 207.24 53.52 225.69 18.57 181.01 26.45" style="fill:#231f20"/><polygon points="175.53 15.14 175.53 21.45 164.33 18.35 164.33 11.08 139.52 2.07 165.98 53.52 174.69 53.52 178.99 24.22 193.41 21.63 175.53 15.14" style="fill:#231f20"/><polygon points="164.33 0 158.54 3.17 159.61 4.46 159.61 9.36 164.33 18.36 164.33 2.48 175.53 7.39 176.72 5.45 164.33 0" style="fill:#e1251b"/><polygon points="225.69 18.57 219.44 30.4 231.69 53.52 235.19 53.52 225.69 18.57" style="fill:#e1251b"/><polygon points="139.52 2.07 123.99 53.52 131.27 53.52 148.56 19.63 139.52 2.07" style="fill:#e1251b"/><polygon points="127.06 35.8 109.45 38.89 104.86 53.52 121.6 53.52 127.06 35.8" style="fill:#231f20"/><path d="M189.85,204.58c0,3.19-2.38,5.1-6.75,5.1a13.91,13.91,0,0,1-5.12-.91v-4.65a10.72,10.72,0,0,0,4.87,1.32c1.46,0,2.25-.25,2.25-.86s-1.09-1-2.88-1.72c-2.7-1.05-4.61-2.16-4.61-5.37s2.58-5.26,6.56-5.26a12.54,12.54,0,0,1,4.56.79v4.47a7.8,7.8,0,0,0-4.14-1.07c-1.37,0-2.21.39-2.21,1.07s1,1,2.72,1.72C187.8,200.33,189.85,201.47,189.85,204.58Z" transform="translate(-82.35 -78.95)" style="fill:#231f20"/><path d="M204,209.33V203l-6.12-10.42h5.54l3,5.79,3-5.79H215L208.84,203v6.33Z" transform="translate(-82.35 -78.95)" style="fill:#231f20"/><path d="M235.43,204.58c0,3.19-2.38,5.1-6.75,5.1a13.83,13.83,0,0,1-5.12-.91v-4.65a10.71,10.71,0,0,0,4.86,1.32c1.47,0,2.26-.25,2.26-.86s-1.09-1-2.88-1.72c-2.7-1.05-4.61-2.16-4.61-5.37s2.58-5.26,6.56-5.26a12.58,12.58,0,0,1,4.56.79v4.47a7.8,7.8,0,0,0-4.14-1.07c-1.37,0-2.21.39-2.21,1.07s1,1,2.72,1.72C233.38,200.33,235.43,201.47,235.43,204.58Z" transform="translate(-82.35 -78.95)" style="fill:#231f20"/><path d="M256.77,192.58v4.09h-4.28v12.66h-4.88V196.67h-4.28v-4.09Z" transform="translate(-82.35 -78.95)" style="fill:#231f20"/><path d="M265.77,192.58H277v4.09h-6.35v2.24h5.44v3.84h-5.44v2.48h6.7v4.1H265.77Z" transform="translate(-82.35 -78.95)" style="fill:#231f20"/><path d="M291.65,201.61v7.72H287v-17h.11l8.35,6.88,8.33-6.88H304v17h-4.65v-7.72l-3.82,3.09Z" transform="translate(-82.35 -78.95)" style="fill:#231f20"/><path d="M326,204.58c0,3.19-2.37,5.1-6.75,5.1a13.81,13.81,0,0,1-5.11-.91v-4.65a10.71,10.71,0,0,0,4.86,1.32c1.46,0,2.25-.25,2.25-.86s-1.09-1-2.88-1.72c-2.7-1.05-4.61-2.16-4.61-5.37s2.59-5.26,6.56-5.26a12.54,12.54,0,0,1,4.56.79v4.47a7.8,7.8,0,0,0-4.14-1.07c-1.37,0-2.21.39-2.21,1.07s1,1,2.72,1.72C323.93,200.33,326,201.47,326,204.58Z" transform="translate(-82.35 -78.95)" style="fill:#231f20"/></svg>